<svg width="132" height="132" viewBox="0 0 132 132" fill="none" xmlns="http://www.w3.org/2000/svg">
<rect width="132" height="132" fill="white"/>
<path d="M86.625 86.625H107.25V107.25H86.625V86.625ZM70.125 70.125H86.625V86.625H70.125V70.125ZM107.25 107.25H123.75V123.75H107.25V107.25ZM111.375 70.125H123.75V82.5H111.375V70.125ZM70.125 111.375H82.5V123.75H70.125V111.375ZM86.625 24.75H107.25V45.375H86.625V24.75Z" fill="black"/>
<path d="M123.75 61.875H70.125V8.25H123.75V61.875ZM81.4688 50.5312H112.406V19.5938H81.4688V50.5312ZM24.75 24.75H45.375V45.375H24.75V24.75Z" fill="black"/>
<path d="M61.875 61.875H8.25V8.25H61.875V61.875ZM19.5938 50.5312H50.5312V19.5938H19.5938V50.5312ZM24.75 86.625H45.375V107.25H24.75V86.625Z" fill="black"/>
<path d="M61.875 123.75H8.25V70.125H61.875V123.75ZM19.5938 112.406H50.5312V81.4688H19.5938V112.406Z" fill="black"/>
</svg>
