<svg width="40" height="40" viewBox="0 0 40 40" fill="none" xmlns="http://www.w3.org/2000/svg">
<g clip-path="url(#clip0_46_2286)">
<path d="M29.6437 14.4028C32.5621 16.2435 36.1375 17.3266 39.9989 17.3266V10.7707C39.268 10.7708 38.5392 10.7035 37.8242 10.5699V15.7303C33.9631 15.7303 30.3882 14.6474 27.4692 12.8068V26.1856C27.4692 32.8784 21.3198 38.3035 13.7348 38.3035C10.9046 38.3035 8.27402 37.5486 6.08887 36.2539C8.58293 38.5039 12.0611 39.8997 15.9089 39.8997C23.4945 39.8997 29.644 34.4746 29.644 27.7815V14.4028H29.6437ZM32.3265 7.78877C30.835 6.35112 29.8556 4.49319 29.6437 2.43912V1.59595H27.5829C28.1017 4.20657 29.8712 6.43691 32.3265 7.78877ZM10.8864 31.1182C10.0531 30.1542 9.60262 28.9748 9.60465 27.7623C9.60465 24.7013 12.4173 22.2194 15.8875 22.2194C16.5341 22.2191 17.1768 22.3067 17.7932 22.4791V15.7766C17.0729 15.6896 16.3461 15.6525 15.6195 15.6662V20.883C15.0028 20.7104 14.3597 20.6229 13.7128 20.6234C10.2428 20.6234 7.43027 23.1051 7.43027 26.1664C7.43027 28.3311 8.83605 30.2052 10.8864 31.1182Z" fill="#FF004F"/>
<path d="M27.4692 12.8067C30.3885 14.6473 33.963 15.7302 37.8242 15.7302V10.5697C35.6689 10.1646 33.761 9.17098 32.3264 7.78877C29.871 6.43678 28.1017 4.20643 27.583 1.59595H22.17V27.7812C22.1577 30.8339 19.3499 33.3056 15.8872 33.3056C13.8469 33.3056 12.0341 32.4475 10.8861 31.118C8.83612 30.2052 7.43019 28.331 7.43019 26.1666C7.43019 23.1055 10.2427 20.6235 13.7127 20.6235C14.3775 20.6235 15.0183 20.7148 15.6194 20.8831V15.6663C8.16753 15.8022 2.17456 21.1743 2.17456 27.7813C2.17456 31.0795 3.6669 34.0695 6.08909 36.2542C8.27425 37.5486 10.9047 38.3038 13.735 38.3038C21.3202 38.3038 27.4694 32.8783 27.4694 26.1856L27.4692 12.8067Z" fill="black"/>
<path d="M37.8242 10.5697V9.17462C35.8806 9.17722 33.9754 8.69699 32.3264 7.78883C33.7861 9.19878 35.7082 10.1711 37.8242 10.5699M27.5828 1.59586C27.5334 1.34643 27.4954 1.09533 27.4691 0.843172V0H19.995V26.1855C19.9831 29.2379 17.1753 31.7097 13.7125 31.7097C12.7308 31.7109 11.7626 31.5084 10.8859 31.1183C12.0339 32.4476 13.8467 33.3055 15.887 33.3055C19.3495 33.3055 22.1577 30.8341 22.1698 27.7814V1.596L27.5828 1.59586ZM15.6197 15.6662V14.1808C14.9951 14.1055 14.3655 14.0678 13.7352 14.068C6.14922 14.068 0 19.4934 0 26.1855C0 30.3812 2.41672 34.0789 6.08922 36.2539C3.66703 34.0694 2.17469 31.0793 2.17469 27.7812C2.17469 21.1743 8.1675 15.8021 15.6197 15.6662Z" fill="#00F2EA"/>
</g>
<defs>
<clipPath id="clip0_46_2286">
<rect width="40" height="40" fill="white"/>
</clipPath>
</defs>
</svg>
